DataType=double
version=3
OpenSimVersion=4.5-2024-01-10-34fd6af
endheader
time	ground_force_2_vx	ground_force_2_vy	ground_force_2_vz	ground_force_2_px	ground_force_2_py	ground_force_2_pz	ground_moment_2_mx	ground_moment_2_my	ground_moment_2_mz	ground_force_1_vx	ground_force_1_vy	ground_force_1_vz	ground_force_1_px	ground_force_1_py	ground_force_1_pz	ground_moment_1_mx	ground_moment_1_my	ground_moment_1_mz
39.05	-0.05441845534408252	44.64163073676502	-4.212863358551996	0.8400876001333692	0.01929718473203197	0.5873438488221436	-0.3112305281972852	0.1119477575844388	2.277053889190174	-30.58225829486739	680.2230246074658	62.44837395779005	1.18936016458558	0.01929718473203197	0.3487247845328901	-11.67841818519329	3.909592006599981	-31.73896097664899
39.06	-1.855403942780999	24.22812065124504	-2.122375692811712	0.8422923998523512	0.01929718473203197	0.5860277854415056	-0.1557587057843556	0.03624795888558641	1.116000531215039	-27.3057594839743	699.8899116546509	63.51895857314637	1.181230928775487	0.01929718473203197	0.348393706748523	-11.72124650712214	4.051627272084145	-31.93653392007506
39.07	-2.719951294811668	9.567580879225659	-0.657345463895382	0.8455588386577618	0.01929718473203197	0.5846304854993186	-0.04751736128040568	-0.01298031849196724	0.3141269834274354	-24.08155431187731	717.376111589969	64.56247585117686	1.173110340696284	0.01929718473203197	0.3480805456658704	-11.69760972175732	4.193931640468879	-31.87156073019546
39.08	-2.902694865668394	-0.1271432505391203	0.2725843795810619	0.8499361813603254	0.01929718473203197	0.5832090621477419	0.02142856258585324	-0.04067436612558994	-0.1886612232843763	-21.02483999662573	732.4448271374854	65.63200970733162	1.165010840473076	0.01929718473203197	0.3477828939234156	-11.59727843249402	4.332106151282391	-31.52536960447367
39.09	-2.656715692853012	-5.835868942040349	0.7840241425784669	0.8554607900794042	0.01929718473203197	0.5818178769514687	0.05971134349565035	-0.05254429286615148	-0.4597126965456859	-18.19060836220787	744.9202427708494	66.73359576274724	1.15693944843388	0.01929718473203197	0.3474994848135797	-11.41285664205291	4.460511647323668	-30.89084895825253
39.1	-2.182909800935141	-8.572502711884795	0.993164749849889	0.8621549245684872	0.01929718473203197	0.5805060004438096	0.07575681024582567	-0.05376031408468318	-0.5642358893060571	-15.58555824838003	754.687676847768	67.83503124842382	1.148898169969265	0.01929718473203197	0.3472300392497227	-11.14054000469754	4.573222305749407	-29.97255832294975
39.11	-1.624637150752662	-9.262970859423035	1.002173233243703	0.8700268480966844	0.01929718473203197	0.579316174185408	0.07699618913650916	-0.04851947960340031	-0.5591017144487953	-13.18724066338346	761.6971492872196	68.87952344866352	1.140884917401602	0.01929718473203197	0.3469749135260496	-10.78042829559297	4.664927486065228	-28.78564897059917
39.12	-1.075612743693876	-8.678192075314257	0.8935674090572192	0.8790721210407957	0.01929718473203197	0.5782850800558262	0.06945150459637303	-0.03998376233261469	-0.4899689931239979	-10.96394261817569	765.9720061553339	69.8028130637887	1.132894729162269	0.01929718473203197	0.3467346972369411	-10.33635733602584	4.731568020201566	-27.35383813719692
39.13	-0.5901020081095147	-7.411982942023201	0.7290982923899989	0.8892758147203843	0.01929718473203197	0.5774444882380809	0.0576485968989435	-0.03036024264426507	-0.3908478585824149	-8.889509659594026	767.6198586777057	70.55069448916046	1.124921075027971	0.01929718473203197	0.3465098687964721	-9.815353176548101	4.770576539347816	-25.70691017921088
39.14	-0.1933237513473625	-5.887826958603341	0.5513968615449798	0.9006152865828247	0.01929718473203197	0.5768227426063607	0.04473164718658876	-0.02105570466798712	-0.2851407050682686	-6.949913982273063	766.8403974486949	71.09232197983771	1.116957070287614	0.01929718473203197	0.3463005727948642	-9.226908200056615	4.780755557777678	-23.8783052310539
39.15	0.1091941824204419	-4.381870814782815	0.3870516638798449	0.9130631212328187	0.01929718473203197	0.5764460502253902	0.03268250309855814	-0.01285798916663761	-0.187430336308795	-5.141780175203063	763.9250275714242	71.42526093886561	1.108996470735635	0.01929718473203197	0.3461065440551953	-8.582277608244187	4.761974089850057	-21.90321627643105
39.16	0.3239346321449954	-3.052942242528388	0.2501775994037345	0.9265898452920125	0.01929718473203197	0.5763391450278447	0.02257614297504595	-0.0061128491134117	-0.1055016163846652	-3.465657290389064	759.2462160668249	71.57093012697891	1.101034373932253	0.01929718473203197	0.3459271695642612	-7.893892503506756	4.714900261914629	-19.8173133206249
39.17	0.4635725113925631	-1.973418218693155	0.1458766345503761	0.9411660498670147	0.01929718473203197	0.5765250574207056	0.01482763874350285	-0.0008778398894662143	-0.0422677801334892	-1.917811779981458	753.2379571131121	71.56282994863892	1.093067601976608	0.01929718473203197	0.3457616526068583	-7.17485683893231	4.640901665361513	-17.65591872162223
39.18	0.5429148503751904	-1.15722891657407	0.07325999411383322	0.956763589287591	0.01929718473203197	0.577023904673205	0.009405000927602963	0.002955719106277677	0.002581233044329778	-0.4838854222631817	746.3710035252016	71.43322458765324	1.085094781787248	0.01929718473203197	0.3456092252454632	-6.438432782792217	4.542100106045623	-15.45331400040945
39.19	0.5763289620985468	-0.5831235775672212	0.02789381250526901	0.9733555652016501	0.01929718473203197	0.5778507923468272	0.005996419355613292	0.005574805337090538	0.03128355126398463	0.8636738798007784	739.1266804769689	71.20449533804769	1.077116168149961	0.01929718473203197	0.3454693480767745	-5.697450667536149	4.421454435913914	-13.24190490312019
39.2	0.5763177768285885	-0.2126010718432667	0.003651364231238574	0.9909148584526849	0.01929718473203197	0.5790130662752412	0.004130349930061478	0.00718796912738906	0.04706571383021307	2.164297420694872	731.9717146253962	70.88834947807274	1.069133272393721	0.01929718473203197	0.3453418416375717	-4.963650406685673	4.282727319927512	-11.05112739335852
39.21	0.5529030334755856	-0.002712020899025447	-0.005981387684805384	1.009411053005493	0.01929718473203197	0.5805072684961466	0.003253513701628408	0.007993700918113689	0.05351690839951173	3.46528746572565	725.335032102986	70.49177403217675	1.061148366653319	0.01929718473203197	0.3452269115750569	-4.247005218155651	4.130258637229572	-8.906120345266348
39.22	0.5135248505468812	0.08562653005202492	-0.007073652034627287	1.028805724301205	0.01929718473203197	0.5823162250175824	0.002776018554217274	0.008166099098569024	0.0542125160030138	4.816724818350924	719.5869704203697	70.02581988380101	1.053163932019252	0.01929718473203197	0.3451250564578319	-3.555088805166136	3.968565300086095	-6.826278570780248
39.23	0.4632382649631257	0.08299756936270342	-0.004805198003282385	1.049046250816164	0.01929718473203197	0.5844067248090714	0.002095225885821589	0.007850430794879237	0.05251402049534715	6.266716176296639	715.0217207228856	69.51250091493802	1.045182110429854	0.01929718473203197	0.3450368768436439	-2.89255531685573	3.801875219555157	-4.823874692753551
39.24	0.405065428463093	0.009739858706041105	-0.003309296444520271	1.070058550584485	0.01929718473203197	0.5867282321126162	0.0006111873689453318	0.007163532183488863	0.05147301048588204	7.857894397652704	711.844376334481	68.98618497659925	1.037204207165549	0.01929718473203197	0.3449628295441062	-2.26081891421832	3.63374680740196	-2.903022350145476
39.25	0.3404310576431779	-0.1235742451186752	-0.005690032303590442	1.091739422823315	0.01929718473203197	0.5892130005548665	-0.002253228931398399	0.00619701919153326	0.05377236367210259	9.625331829048127	710.1641351790214	68.48891886527335	1.029230276013929	0.01929718473203197	0.3449029852775226	-1.658024095227551	3.466887143425344	-1.059294346741118
39.26	0.2696604659482347	-0.313926779979397	-0.01410040342545926	1.11394944617617	0.01929718473203197	0.591777822533807	-0.007014821148030231	0.005023323683778891	0.06164499703344539	11.59537398166933	709.994773040021	68.06253249399001	1.021258806007693	0.01929718473203197	0.344856847141522	-1.079366076708763	3.303184681417168	0.7197511105711365
